<?xml version="1.0" encoding="iso-8859-1"?>
<!-- Generator: Adobe Illustrator 19.0.0, SVG Export Plug-In . SVG Version: 6.00 Build 0)  -->
<svg version="1.1" id="Capa_1" xmlns="http://www.w3.org/2000/svg" xmlns:xlink="http://www.w3.org/1999/xlink" x="0px" y="0px"
	 viewBox="0 0 480 480" style="enable-background:new 0 0 480 480;" xml:space="preserve">
<g>
	<g>
		<g>
			<path d="M472,24.045H8c-4.418,0-8,3.582-8,8v320c0,4.418,3.582,8,8,8h264.408c4.445,57.239,54.449,100.037,111.688,95.592
				c54.109-4.202,95.879-49.321,95.904-103.592v-320C480,27.627,476.418,24.045,472,24.045z M376,440.045c-48.601,0-88-39.399-88-88
				c0-48.601,39.399-88,88-88c48.601,0,88,39.399,88,88C464,400.646,424.601,440.045,376,440.045z M280,312.045H67.312L48,292.733
				V187.357l19.312-19.312h345.376L432,187.357v77.192c-48.18-31.017-112.382-17.104-143.399,31.076
				C285.25,300.831,282.371,306.326,280,312.045z M464,296.845c-4.516-7.182-9.889-13.788-16-19.672v-93.128
				c0-2.122-0.844-4.156-2.344-5.656l-24-24c-1.5-1.5-3.534-2.344-5.656-2.344H64c-2.122,0-4.156,0.844-5.656,2.344l-24,24
				c-1.5,1.5-2.344,3.534-2.344,5.656v112c0,2.122,0.844,4.156,2.344,5.656l24,24c1.5,1.5,3.534,2.344,5.656,2.344h210.904
				c-1.249,5.26-2.084,10.61-2.496,16H16v-208h448V296.845z M464,120.045H16v-32h448V120.045z M464,72.045H16v-32h448V72.045z"/>
			<path d="M240,192.045c-26.51,0-48,21.49-48,48c0,26.51,21.49,48,48,48c26.51,0,48-21.49,48-48
				C287.974,213.547,266.499,192.072,240,192.045z M240,272.045c-17.673,0-32-14.327-32-32s14.327-32,32-32
				c17.673,0,32,14.327,32,32S257.673,272.045,240,272.045z"/>
			<rect x="368" y="184.045" width="16" height="16"/>
			<rect x="400" y="184.045" width="16" height="16"/>
			<rect x="64" y="280.045" width="16" height="16"/>
			<rect x="96" y="280.045" width="16" height="16"/>
			
				<rect x="308.082" y="344.032" transform="matrix(0.7071 -0.7071 0.7071 0.7071 -138.806 368.9563)" width="135.769" height="16"/>
			<path d="M344,344.045c13.255,0,24-10.745,24-24s-10.745-24-24-24s-24,10.745-24,24S330.745,344.045,344,344.045z M344,312.045
				c4.418,0,8,3.582,8,8s-3.582,8-8,8s-8-3.582-8-8S339.582,312.045,344,312.045z"/>
			<path d="M408,360.045c-13.255,0-24,10.745-24,24s10.745,24,24,24s24-10.745,24-24S421.255,360.045,408,360.045z M408,392.045
				c-4.418,0-8-3.582-8-8s3.582-8,8-8s8,3.582,8,8S412.418,392.045,408,392.045z"/>
		</g>
	</g>
</g>
<g>
</g>
<g>
</g>
<g>
</g>
<g>
</g>
<g>
</g>
<g>
</g>
<g>
</g>
<g>
</g>
<g>
</g>
<g>
</g>
<g>
</g>
<g>
</g>
<g>
</g>
<g>
</g>
<g>
</g>
</svg>
