<svg id="Layer_1" enable-background="new 0 0 512 512" height="512" viewBox="0 0 512 512" width="512" xmlns="http://www.w3.org/2000/svg"><g><g><path d="m147.002 166.5c31.981 0 58-26.019 58-58s-26.019-58-58-58-58 26.019-58 58 26.019 58 58 58zm0-101c23.71 0 43 19.29 43 43s-19.29 43-43 43-43-19.29-43-43 19.29-43 43-43z"/><path d="m147 28.081c4.142 0 7.5-3.358 7.5-7.5v-13.081c0-4.142-3.358-7.5-7.5-7.5s-7.5 3.358-7.5 7.5v13.081c0 4.142 3.358 7.5 7.5 7.5z"/><path d="m139.5 196.419v13.081c0 4.142 3.358 7.5 7.5 7.5s7.5-3.358 7.5-7.5v-13.081c0-4.142-3.358-7.5-7.5-7.5s-7.5 3.358-7.5 7.5z"/><path d="m209.164 53.836c1.919 0 3.839-.732 5.303-2.197l9.253-9.253c2.929-2.929 2.929-7.678 0-10.606-2.929-2.929-7.678-2.929-10.606 0l-9.253 9.253c-2.929 2.929-2.929 7.678 0 10.606 1.464 1.465 3.384 2.197 5.303 2.197z"/><path d="m75.583 187.417c1.919 0 3.839-.732 5.303-2.197l9.253-9.253c2.929-2.929 2.929-7.678 0-10.606-2.929-2.929-7.678-2.929-10.606 0l-9.253 9.253c-2.929 2.929-2.929 7.678 0 10.606 1.464 1.465 3.384 2.197 5.303 2.197z"/><path d="m234.919 116h13.081c4.142 0 7.5-3.358 7.5-7.5s-3.358-7.5-7.5-7.5h-13.081c-4.142 0-7.5 3.358-7.5 7.5s3.358 7.5 7.5 7.5z"/><path d="m46 116h13.081c4.142 0 7.5-3.358 7.5-7.5s-3.358-7.5-7.5-7.5h-13.081c-4.142 0-7.5 3.358-7.5 7.5s3.358 7.5 7.5 7.5z"/><path d="m214.467 165.361c-2.929-2.929-7.678-2.929-10.606 0-2.929 2.929-2.929 7.678 0 10.606l9.253 9.253c1.464 1.464 3.384 2.197 5.303 2.197s3.839-.732 5.303-2.197c2.929-2.929 2.929-7.678 0-10.606z"/><path d="m79.533 51.639c1.464 1.464 3.384 2.197 5.303 2.197s3.839-.732 5.303-2.197c2.929-2.929 2.929-7.678 0-10.606l-9.253-9.253c-2.929-2.929-7.678-2.929-10.606 0-2.929 2.929-2.929 7.678 0 10.606z"/><path d="m504.5 390c-13.075 0-19.974 5.759-25.518 10.387-4.8 4.007-8.269 6.902-15.905 6.902s-11.105-2.895-15.905-6.902c-5.544-4.628-12.443-10.387-25.518-10.387-.396 0-.786.005-1.17.016.01-.586.016-1.175.016-1.766 0-17.043-4.177-35.83-12.129-54.75 15.272-7.403 23.657-22.932 23.657-45.016 0-28.572-27.62-61.299-39.496-74.044-2.063-2.213-4.98-3.482-8.004-3.482-3.023 0-5.941 1.269-8.004 3.483-7.083 7.6-19.766 22.309-28.849 39.004-1.032-.821-2.069-1.627-3.108-2.417-3.296-2.506-8.002-1.867-10.51 1.429-2.507 3.297-1.868 8.002 1.429 10.51 1.919 1.46 3.832 2.981 5.721 4.548-2.585 7.007-4.178 14.108-4.178 20.969 0 31.734 17.313 49.934 47.5 49.934 3.275 0 6.398-.215 9.364-.637 7.607 17.608 11.608 34.952 11.608 50.469 0 1.904-.061 3.775-.181 5.596-3.688 1.956-6.583 4.373-9.18 6.542-4.799 4.007-8.267 6.902-15.902 6.902-7.636 0-11.104-2.895-15.903-6.902-5.544-4.629-12.442-10.388-25.516-10.388s-19.972 5.76-25.515 10.388c-4.799 4.007-8.267 6.902-15.901 6.902s-11.102-2.895-15.901-6.902c-5.544-4.628-12.442-10.388-25.516-10.388-13.072 0-19.97 5.76-25.513 10.388-4.798 4.007-8.265 6.902-15.898 6.902-7.634 0-11.102-2.895-15.901-6.902-5.543-4.628-12.441-10.388-25.514-10.388-13.074 0-19.972 5.76-25.515 10.388-4.799 4.007-8.267 6.902-15.901 6.902s-11.102-2.895-15.901-6.902c-2.593-2.165-5.482-4.577-9.16-6.531-.121-1.824-.181-3.698-.181-5.606 0-7.656.979-15.79 2.914-24.257 2.351.254 4.794.383 7.329.383 30.187 0 47.5-18.2 47.5-49.934 0-10.583-3.789-21.735-9.163-32.231 29.568-31.114 65.229-48.181 100.92-48.181 17.794 0 35.611 4.232 52.954 12.579 3.733 1.796 8.214.226 10.01-3.505 1.796-3.732.227-8.214-3.505-10.01-19.391-9.334-39.396-14.065-59.461-14.065-38.634 0-76.938 17.591-108.788 49.751-7.982-12.171-16.932-22.445-22.464-28.381-2.063-2.214-4.98-3.484-8.005-3.484s-5.943 1.27-8.005 3.483c-2.355 2.528-6.04 6.623-10.219 11.777-2.608 3.218-2.115 7.94 1.103 10.549 3.217 2.608 7.939 2.115 10.549-1.103 2.438-3.007 4.691-5.624 6.575-7.739 16.226 18.164 32.497 42.664 32.497 60.559 0 23.507-10.631 34.934-32.5 34.934-3.88 0-7.405-.36-10.581-1.083-.091-.029-.183-.057-.275-.083-.265-.074-.53-.133-.796-.177-14.003-3.644-20.848-14.728-20.848-33.59 0-7.639 2.907-16.883 8.642-27.476 1.972-3.643.617-8.194-3.025-10.166-3.643-1.972-8.194-.617-10.166 3.025-6.934 12.81-10.45 24.457-10.45 34.617 0 23.011 9.104 38.906 25.619 45.906-2.233 9.674-3.362 19.032-3.362 27.903 0 .591.006 1.18.016 1.766-.39-.011-.786-.016-1.188-.016-13.073 0-19.971 5.76-25.514 10.388-4.798 4.007-8.266 6.902-15.9 6.902s-11.101-2.895-15.899-6.902c-5.545-4.63-12.443-10.39-25.516-10.39-4.142 0-7.5 3.358-7.5 7.5v77.09c0 20.628 16.822 37.41 37.5 37.41h90.269c4.142 0 7.5-3.358 7.5-7.5s-3.358-7.5-7.5-7.5h-90.269c-12.407 0-22.5-10.053-22.5-22.41v-68.319c3.114 1.218 5.517 3.224 8.399 5.631 5.543 4.628 12.441 10.388 25.514 10.388s19.971-5.76 25.514-10.388c4.799-4.007 8.266-6.902 15.9-6.902 2.614 0 4.74.34 6.598.947.174.067.35.128.529.183 3.299 1.201 5.777 3.27 8.775 5.772 5.543 4.628 12.441 10.388 25.515 10.388s19.972-5.76 25.515-10.388c4.799-4.007 8.267-6.902 15.902-6.902s11.102 2.895 15.901 6.902c5.543 4.628 12.441 10.388 25.514 10.388 13.072 0 19.97-5.76 25.513-10.388 4.798-4.007 8.265-6.902 15.898-6.902 7.635 0 11.102 2.895 15.901 6.902 5.543 4.628 12.441 10.388 25.515 10.388s19.972-5.76 25.515-10.388c4.799-4.007 8.267-6.902 15.902-6.902s11.103 2.895 15.902 6.902c5.543 4.628 12.442 10.388 25.516 10.388s19.972-5.76 25.515-10.388c3.029-2.529 5.528-4.615 8.879-5.809.118-.038.236-.078.352-.121 1.875-.622 4.022-.971 6.671-.971 7.637 0 11.105 2.895 15.905 6.902 5.543 4.628 12.443 10.387 25.518 10.387s19.974-5.759 25.518-10.387c2.885-2.408 5.289-4.415 8.405-5.633v68.32c0 12.357-10.093 22.41-22.5 22.41h-314.116c-4.142 0-7.5 3.358-7.5 7.5s3.358 7.5 7.5 7.5h314.115c20.678 0 37.5-16.782 37.5-37.41v-77.09c0-4.142-3.358-7.5-7.5-7.5zm-152.472-101.516c0-17.895 16.274-42.398 32.5-60.563 16.227 18.166 32.5 42.669 32.5 60.563 0 18.564-6.63 29.594-20.189 33.412-.321.063-.641.147-.957.254-3.374.847-7.156 1.268-11.354 1.268-21.869 0-32.5-11.427-32.5-34.934z"/></g></g></svg>