<svg height="511pt" viewBox="-81 0 511 511.99994" width="511pt" xmlns="http://www.w3.org/2000/svg"><path d="m174.511719 138.035156c-56.246094 0-102.007813 45.757813-102.007813 102.003906 0 56.246094 45.761719 102.007813 102.007813 102.007813 56.246093 0 102.003906-45.761719 102.003906-102.007813 0-56.246093-45.757813-102.003906-102.003906-102.003906zm0 184.007813c-5.5 0-12.417969-8.148438-17.628907-20.761719-2.320312-5.621094-4.269531-11.917969-5.839843-18.707031h46.9375c-1.570313 6.789062-3.519531 13.085937-5.839844 18.707031-5.210937 12.613281-12.128906 20.761719-17.628906 20.761719zm-26.800781-59.46875c-.785157-7.246094-1.199219-14.800781-1.199219-22.535157 0-7.730468.414062-15.289062 1.199219-22.53125h53.601562c.785156 7.246094 1.199219 14.800782 1.199219 22.53125 0 7.734376-.414063 15.289063-1.199219 22.535157zm-55.203126-22.535157c0-7.8125 1.121094-15.367187 3.171876-22.53125h31.933593c-.726562 7.3125-1.105469 14.859376-1.105469 22.53125 0 7.675782.382813 15.222657 1.105469 22.535157h-31.933593c-2.050782-7.167969-3.171876-14.71875-3.171876-22.535157zm82.003907-82.003906c5.5 0 12.417969 8.152344 17.625 20.765625 2.324219 5.617188 4.273437 11.917969 5.839843 18.707031h-46.933593c1.570312-6.789062 3.519531-13.089843 5.839843-18.707031 5.210938-12.613281 12.128907-20.765625 17.628907-20.765625zm46.898437 59.472656h31.933594c2.050781 7.164063 3.171875 14.71875 3.171875 22.53125s-1.121094 15.367188-3.171875 22.535157h-31.933594c.722656-7.3125 1.101563-14.859375 1.101563-22.535157 0-7.675781-.378907-15.222656-1.101563-22.53125zm23.1875-20.003906h-26.167968c-1.949219-9.601562-4.566407-18.5-7.804688-26.339844-.863281-2.085937-1.765625-4.082031-2.699219-5.984374 15.242188 6.832031 28.046875 18.167968 36.671875 32.324218zm-103.5-32.324218c-.9375 1.902343-1.839844 3.898437-2.699218 5.984374-3.238282 7.839844-5.855469 16.738282-7.804688 26.339844h-26.171875c8.625-14.15625 21.429687-25.492187 36.675781-32.324218zm-36.675781 117.394531h26.171875c1.949219 9.601562 4.566406 18.503906 7.804688 26.339843.859374 2.089844 1.761718 4.082032 2.699218 5.984376-15.246094-6.832032-28.050781-18.164063-36.675781-32.324219zm103.503906 32.324219c.9375-1.902344 1.835938-3.894532 2.699219-5.984376 3.238281-7.835937 5.851562-16.738281 7.804688-26.339843h26.167968c-8.625 14.160156-21.429687 25.492187-36.671875 32.324219zm0 0"/><path d="m260.515625 368.703125c0 2.628906 1.070313 5.199219 2.929687 7.070313 1.859376 1.859374 4.441407 2.917968 7.070313 2.917968s5.210937-1.058594 7.070313-2.917968c1.859374-1.871094 2.929687-4.441407 2.929687-7.070313 0-2.640625-1.070313-5.210937-2.929687-7.082031-1.859376-1.859375-4.441407-2.917969-7.070313-2.917969s-5.210937 1.058594-7.070313 2.917969c-1.859374 1.871094-2.929687 4.441406-2.929687 7.082031zm0 0"/><path d="m230.511719 378.699219c5.523437 0 10.003906-4.476563 10.003906-10 0-5.523438-4.480469-10-10.003906-10h-152.007813c-5.523437 0-10 4.476562-10 10 0 5.523437 4.476563 10 10 10zm0 0"/><path d="m136.007812 394.71875c-5.523437 0-10 4.480469-10 10.003906 0 5.523438 4.476563 10 10 10h77.003907c5.523437 0 10-4.476562 10-10 0-5.523437-4.476563-10.003906-10-10.003906zm0 0"/><path d="m84.003906 492c-2.628906 0-5.207031 1.058594-7.070312 2.929688-1.859375 1.859374-2.929688 4.429687-2.929688 7.070312 0 2.628906 1.070313 5.210938 2.929688 7.070312 1.863281 1.859376 4.441406 2.929688 7.070312 2.929688 2.632813 0 5.210938-1.070312 7.070313-2.929688 1.863281-1.859374 2.933593-4.441406 2.933593-7.070312 0-2.640625-1.070312-5.210938-2.933593-7.070312-1.859375-1.871094-4.4375-2.929688-7.070313-2.929688zm0 0"/><path d="m318.519531 54h-6v-23.996094c0-8.851562-3.878906-17.207031-10.644531-22.917968-6.761719-5.714844-15.644531-8.140626-24.375-6.660157l-252.011719 42.71875c-14.480469 2.453125-24.988281 14.894531-24.988281 29.582031v409.269532c0 16.542968 13.457031 30 30 30h13.503906c5.523438 0 10-4.476563 10-10 0-5.523438-4.476562-10-10-10h-13.503906c-5.511719 0-10-4.488282-10-10v-397.996094c0-5.511719 4.488281-10 10-10h288.015625c5.515625 0 10.003906 4.488281 10.003906 10v397.996094c0 5.511718-4.488281 10-10.003906 10h-194.507813c-5.523437 0-10 4.476562-10 10 0 5.523437 4.476563 10 10 10h194.507813c16.542969 0 30.003906-13.457032 30.003906-30v-397.996094c0-16.542969-13.457031-30-30-30zm-37.675781-33.855469c2.953125-.5 5.839844.289063 8.128906 2.21875 2.285156 1.933594 3.546875 4.644531 3.546875 7.640625v23.996094h-211.390625zm0 0"/></svg>