<svg xmlns="http://www.w3.org/2000/svg" height="511pt" version="1.1" viewBox="1 -50 511.99904 511" width="511pt">
<g id="surface1">
<path d="M 51.179688 89.046875 C 53.285156 89.046875 55.410156 88.382812 57.21875 87.007812 L 57.410156 86.867188 C 61.804688 83.523438 62.664062 77.25 59.324219 72.855469 C 55.980469 68.453125 49.707031 67.597656 45.3125 70.941406 L 45.121094 71.082031 C 40.726562 74.425781 39.867188 80.699219 43.207031 85.09375 C 45.175781 87.6875 48.160156 89.046875 51.179688 89.046875 Z M 51.179688 89.046875 " style=" stroke:none;fill-rule:nonzero;fill:rgb(0%,0%,0%);fill-opacity:1;" />
<path d="M 298.34375 388.535156 C 300.453125 388.535156 302.578125 387.871094 304.386719 386.5 L 304.574219 386.355469 C 308.972656 383.015625 309.828125 376.742188 306.488281 372.34375 C 303.148438 367.945312 296.875 367.089844 292.476562 370.429688 L 292.289062 370.574219 C 287.890625 373.914062 287.035156 380.1875 290.375 384.585938 C 292.339844 387.175781 295.324219 388.535156 298.34375 388.535156 Z M 298.34375 388.535156 " style=" stroke:none;fill-rule:nonzero;fill:rgb(0%,0%,0%);fill-opacity:1;" />
<path d="M 503.769531 103.132812 C 471.140625 70.5 432.871094 44.957031 390.027344 27.207031 C 347.238281 9.484375 302.144531 0.5 256 0.5 C 209.855469 0.5 164.765625 9.484375 121.972656 27.210938 C 107.691406 33.125 93.675781 40.046875 80.324219 47.773438 L 78.847656 48.632812 C 74.078125 51.417969 72.46875 57.539062 75.253906 62.308594 C 78.039062 67.082031 84.164062 68.691406 88.933594 65.902344 L 90.339844 65.085938 C 102.9375 57.792969 116.15625 51.269531 129.628906 45.6875 C 169.976562 28.972656 212.496094 20.5 256 20.5 C 299.503906 20.5 342.023438 28.972656 382.371094 45.6875 C 422.777344 62.421875 458.863281 86.507812 489.628906 117.277344 C 491.15625 118.804688 492 120.839844 492 123.003906 C 492 125.167969 491.15625 127.203125 489.628906 128.734375 C 488.097656 130.261719 486.0625 131.105469 483.898438 131.105469 C 481.734375 131.105469 479.699219 130.261719 478.167969 128.734375 C 448.773438 99.335938 414.503906 76.410156 376.304688 60.589844 C 338.046875 44.742188 297.574219 36.707031 256 36.707031 C 214.429688 36.707031 173.953125 44.742188 135.695312 60.589844 C 97.496094 76.410156 63.226562 99.335938 33.832031 128.730469 C 32.300781 130.261719 30.265625 131.105469 28.101562 131.105469 C 25.9375 131.105469 23.902344 130.261719 22.371094 128.730469 C 20.84375 127.203125 20 125.167969 20 123.003906 C 20 120.835938 20.84375 118.804688 22.375 117.273438 C 26.765625 112.882812 31.347656 108.554688 35.992188 104.410156 C 40.113281 100.734375 40.472656 94.414062 36.796875 90.292969 C 33.121094 86.171875 26.800781 85.8125 22.679688 89.484375 C 17.75 93.882812 12.890625 98.472656 8.230469 103.132812 C 2.921875 108.441406 0 115.496094 0 123.003906 C 0 130.511719 2.921875 137.566406 8.230469 142.871094 C 13.539062 148.183594 20.59375 151.105469 28.101562 151.105469 C 35.605469 151.105469 42.664062 148.179688 47.972656 142.875 C 75.5 115.347656 107.589844 93.878906 143.347656 79.066406 C 179.164062 64.230469 217.066406 56.707031 256 56.707031 C 294.929688 56.707031 332.832031 64.230469 368.652344 79.066406 C 404.410156 93.878906 436.5 115.34375 464.027344 142.875 C 469.335938 148.183594 476.390625 151.105469 483.898438 151.105469 C 491.402344 151.105469 498.460938 148.179688 503.769531 142.875 C 509.074219 137.566406 512 130.511719 512 123.003906 C 512 115.496094 509.078125 108.441406 503.769531 103.132812 Z M 503.769531 103.132812 " style=" stroke:none;fill-rule:nonzero;fill:rgb(0%,0%,0%);fill-opacity:1;" />
<path d="M 359.191406 101.652344 C 326.230469 87.996094 291.511719 81.074219 256 81.074219 C 220.488281 81.074219 185.769531 87.996094 152.808594 101.652344 C 119.789062 115.328125 90.316406 134.996094 65.207031 160.109375 C 59.898438 165.414062 56.976562 172.472656 56.976562 179.976562 C 56.976562 187.484375 59.898438 194.539062 65.207031 199.847656 C 70.515625 205.15625 77.570312 208.078125 85.078125 208.078125 C 92.585938 208.078125 99.640625 205.15625 104.949219 199.847656 C 124.957031 179.839844 148.253906 164.246094 174.183594 153.503906 C 200.175781 142.738281 227.703125 137.28125 256.003906 137.28125 C 284.300781 137.28125 311.828125 142.738281 337.820312 153.503906 C 363.753906 164.246094 387.046875 179.839844 407.054688 199.847656 C 412.363281 205.15625 419.417969 208.078125 426.925781 208.078125 C 434.433594 208.078125 441.488281 205.15625 446.796875 199.847656 C 452.105469 194.542969 455.027344 187.484375 455.027344 179.976562 C 455.027344 172.472656 452.105469 165.414062 446.800781 160.109375 C 421.683594 134.996094 392.210938 115.328125 359.191406 101.652344 Z M 432.652344 185.707031 C 431.121094 187.238281 429.085938 188.078125 426.925781 188.078125 C 424.761719 188.078125 422.726562 187.238281 421.195312 185.707031 C 399.320312 163.832031 373.84375 146.78125 345.472656 135.03125 C 317.042969 123.253906 286.941406 117.28125 256 117.28125 C 255.996094 117.28125 256 117.28125 256 117.28125 C 225.0625 117.28125 194.957031 123.253906 166.527344 135.03125 C 138.15625 146.78125 112.679688 163.832031 90.804688 185.707031 C 89.273438 187.238281 87.238281 188.078125 85.074219 188.078125 C 82.910156 188.078125 80.878906 187.238281 79.347656 185.707031 C 77.816406 184.179688 76.972656 182.144531 76.972656 179.976562 C 76.972656 177.8125 77.816406 175.78125 79.347656 174.25 C 102.589844 151.003906 129.882812 132.792969 160.464844 120.128906 C 190.984375 107.484375 223.128906 101.074219 256 101.074219 C 288.871094 101.074219 321.015625 107.484375 351.539062 120.128906 C 382.117188 132.792969 409.410156 151.003906 432.652344 174.25 C 434.183594 175.78125 435.027344 177.8125 435.027344 179.976562 C 435.027344 182.140625 434.183594 184.175781 432.652344 185.707031 Z M 432.652344 185.707031 " style=" stroke:none;fill-rule:nonzero;fill:rgb(0%,0%,0%);fill-opacity:1;" />
<path d="M 328.355469 176.089844 C 305.21875 166.507812 280.875 161.648438 256 161.648438 C 231.125 161.648438 206.78125 166.507812 183.640625 176.089844 C 160.449219 185.699219 139.765625 199.488281 122.179688 217.082031 C 116.871094 222.390625 113.949219 229.445312 113.949219 236.953125 C 113.949219 244.460938 116.871094 251.515625 122.179688 256.824219 C 127.488281 262.132812 134.546875 265.054688 142.050781 265.054688 C 149.558594 265.054688 156.613281 262.128906 161.921875 256.824219 C 174.410156 244.335938 188.910156 234.617188 205.015625 227.945312 C 221.183594 221.25 238.335938 217.855469 256 217.855469 C 273.664062 217.855469 290.816406 221.25 306.984375 227.945312 C 323.089844 234.617188 337.589844 244.335938 350.078125 256.820312 C 355.382812 262.132812 362.441406 265.054688 369.949219 265.054688 C 377.453125 265.054688 384.511719 262.128906 389.820312 256.824219 C 395.125 251.515625 398.050781 244.460938 398.050781 236.953125 C 398.050781 229.445312 395.125 222.390625 389.820312 217.082031 C 372.230469 199.492188 351.550781 185.699219 328.355469 176.089844 Z M 375.679688 242.679688 C 374.148438 244.210938 372.113281 245.054688 369.949219 245.054688 C 367.785156 245.054688 365.75 244.210938 364.222656 242.679688 C 349.867188 228.324219 333.183594 217.152344 314.636719 209.46875 C 296.03125 201.761719 276.304688 197.855469 256 197.855469 C 235.699219 197.855469 215.96875 201.761719 197.363281 209.46875 C 178.816406 217.152344 162.136719 228.324219 147.78125 242.679688 L 147.78125 242.683594 C 146.25 244.210938 144.214844 245.054688 142.050781 245.054688 C 139.886719 245.054688 137.851562 244.210938 136.320312 242.679688 C 134.792969 241.152344 133.949219 239.117188 133.949219 236.953125 C 133.949219 234.785156 134.792969 232.753906 136.324219 231.222656 C 152.046875 215.496094 170.542969 203.164062 191.296875 194.566406 C 211.996094 185.996094 233.765625 181.648438 256 181.648438 C 278.238281 181.648438 300.003906 185.996094 320.703125 194.566406 C 341.460938 203.164062 359.957031 215.5 375.679688 231.222656 C 377.210938 232.753906 378.054688 234.789062 378.054688 236.953125 C 378.054688 239.117188 377.207031 241.152344 375.679688 242.679688 Z M 375.679688 242.679688 " style=" stroke:none;fill-rule:nonzero;fill:rgb(0%,0%,0%);fill-opacity:1;" />
<path d="M 256 290.429688 C 239.847656 290.429688 224.660156 296.71875 213.242188 308.140625 C 201.820312 319.5625 195.53125 334.746094 195.53125 350.902344 C 195.53125 367.054688 201.820312 382.242188 213.242188 393.664062 C 224.660156 405.085938 239.847656 411.375 256 411.375 C 260.9375 411.375 265.855469 410.773438 270.613281 409.59375 C 275.972656 408.265625 279.242188 402.839844 277.910156 397.480469 C 276.582031 392.121094 271.15625 388.847656 265.796875 390.183594 C 262.613281 390.972656 259.316406 391.375 256 391.375 C 245.1875 391.375 235.027344 387.164062 227.382812 379.523438 C 219.738281 371.878906 215.53125 361.714844 215.53125 350.902344 C 215.53125 340.089844 219.738281 329.925781 227.382812 322.285156 C 235.027344 314.640625 245.191406 310.429688 256 310.429688 C 266.8125 310.429688 276.976562 314.640625 284.621094 322.285156 C 292.261719 329.925781 296.472656 340.089844 296.472656 350.902344 C 296.472656 356.425781 300.949219 360.902344 306.472656 360.902344 C 311.996094 360.902344 316.472656 356.425781 316.472656 350.902344 C 316.472656 334.746094 310.183594 319.5625 298.761719 308.140625 C 287.339844 296.71875 272.152344 290.429688 256 290.429688 Z M 256 290.429688 " style=" stroke:none;fill-rule:nonzero;fill:rgb(0%,0%,0%);fill-opacity:1;" />
</g>
</svg>